<svg width="26" height="20" viewBox="0 0 26 20" fill="none" xmlns="http://www.w3.org/2000/svg">
<path fill-rule="evenodd" clip-rule="evenodd" d="M10.61 0C4.13003 1.27945 0.000976562 6.98501 0.000976562 12.4391C0.000976562 16.6509 2.95666 19.0963 6.1553 19.0963C8.92957 19.0963 11.671 17.1899 11.671 13.8141C11.671 11.0536 9.64993 8.76734 7.00721 8.35146C7.23742 6.2254 9.30407 3.14135 11.654 2.25549L10.61 0ZM24.4017 0C17.9217 1.27945 13.7927 6.98501 13.7927 12.4391C13.7927 16.6509 16.7484 19.0963 19.947 19.0963C22.7213 19.0963 25.4626 17.1899 25.4626 13.8141C25.4626 11.0536 23.4416 8.76734 20.7989 8.35146C21.0291 6.2254 23.0958 3.14135 25.4457 2.25549L24.4017 0Z" fill="url(#paint0_radial_13_191)"/>
<defs>
<radialGradient id="paint0_radial_13_191" cx="0" cy="0" r="1" gradientUnits="userSpaceOnUse" gradientTransform="translate(8.10242 -2.55754) rotate(51.5125) scale(31.1493 75.7204)">
<stop offset="0.125" stop-color="#FF9B00"/>
<stop offset="1" stop-color="#ED1C24"/>
</radialGradient>
</defs>
</svg>
